<?xml version="1.0" encoding="iso-8859-1"?>
<!-- Generator: Adobe Illustrator 19.0.0, SVG Export Plug-In . SVG Version: 6.00 Build 0)  -->
<svg version="1.1" id="Capa_1" xmlns="http://www.w3.org/2000/svg" xmlns:xlink="http://www.w3.org/1999/xlink" x="0px" y="0px"
	 viewBox="0 0 512 512" style="enable-background:new 0 0 512 512;" xml:space="preserve">
<path style="fill:#FEC108;" d="M349.865,156.16c-0.025,6.455-0.886,12.88-2.56,19.114c0,0.085-0.085,0.256-0.085,0.341
	c-6.47,23.889-8.551,48.754-6.144,73.386c0.171,2.048,0.256,4.181,0.256,6.315c-0.118,5.725-1.426,11.362-3.84,16.555
	c-3.717,8.062-8.511,15.583-14.251,22.358c-10.61,12.499-22.446,23.906-35.328,34.048c-3.905,3.187-8.28,5.749-12.97,7.595
	c-1.716,0.752-3.484,1.38-5.291,1.877c-6.582,1.801-13.452,2.294-20.224,1.451c-0.938-0.171-1.963-0.341-2.901-0.512
	c-1.126-0.174-2.239-0.431-3.328-0.768c-1.537-0.353-3.048-0.809-4.522-1.366h-0.085c-1.11-0.426-2.133-0.853-3.158-1.28
	c-0.085-0.085-0.085-0.085-0.171-0.085c-0.25-0.061-0.483-0.177-0.682-0.341c-0.837-0.312-1.638-0.712-2.389-1.195
	c-0.821-0.359-1.595-0.817-2.304-1.366c-0.96-0.516-1.874-1.117-2.73-1.792c-1.064-0.683-2.089-1.424-3.072-2.219
	c-2.986-2.389-5.973-4.949-9.045-7.595l-4.608-4.096c-1.025-0.853-2.048-1.792-2.986-2.73c-6.683-6.095-12.928-12.653-18.688-19.626
	c-1.025-1.28-2.048-2.475-2.986-3.755c-0.257-0.39-0.542-0.76-0.853-1.11c-0.171-0.256-0.341-0.426-0.512-0.682
	c-1.025-1.451-1.963-2.816-2.901-4.267c-1.11-1.621-2.133-3.242-3.072-4.863c-0.065-0.153-0.151-0.297-0.256-0.426
	c-0.853-1.536-1.707-2.986-2.389-4.523c-0.455-0.784-0.827-1.613-1.11-2.474c-0.428-0.786-0.771-1.616-1.025-2.474
	c-0.171-0.186-0.262-0.43-0.256-0.682c-0.265-0.612-0.494-1.238-0.682-1.877c-1.326-3.786-2.019-7.765-2.048-11.777
	c0-2.133,0.085-4.267,0.256-6.315c2.421-24.75,0.31-49.734-6.229-73.728c-1.675-6.234-2.534-12.659-2.56-19.115
	c-0.034-3.719,0.281-7.433,0.938-11.093c3.198-19.206,13.416-36.541,28.672-48.64h128.511
	C338.659,110.828,349.547,132.792,349.865,156.16z"/>
<path style="fill:#FFECB3;" d="M324.264,156.16c-0.025,6.455-0.886,12.88-2.56,19.114c0,0.085-0.085,0.256-0.085,0.341
	c-6.47,23.889-8.551,48.754-6.144,73.386c0.171,2.048,0.256,4.181,0.256,6.315c0,24.576-29.184,53.334-53.419,72.96
	c-5.569,4.604-12.101,7.9-19.114,9.643c-1.534-0.365-3.043-0.82-4.522-1.366h-0.085c-1.11-0.426-2.133-0.853-3.158-1.28
	c-0.085-0.085-0.085-0.085-0.171-0.085c-0.25-0.061-0.483-0.177-0.682-0.341c-0.837-0.312-1.638-0.712-2.389-1.195
	c-0.821-0.359-1.595-0.817-2.304-1.366c-0.96-0.516-1.874-1.117-2.73-1.792c-1.064-0.683-2.089-1.424-3.072-2.219
	c-2.986-2.389-5.973-4.949-9.045-7.595l-4.608-4.096c-1.025-0.938-1.963-1.792-2.986-2.73c-6.683-6.095-12.928-12.653-18.688-19.626
	c-1.025-1.28-2.048-2.475-2.986-3.755c-0.257-0.39-0.542-0.76-0.853-1.11c-0.171-0.256-0.341-0.426-0.512-0.682
	c-1.025-1.451-1.963-2.816-2.901-4.267c-1.11-1.621-2.133-3.242-3.072-4.863c-0.065-0.153-0.151-0.297-0.256-0.426
	c-0.853-1.536-1.707-2.986-2.389-4.523c-0.455-0.784-0.827-1.613-1.11-2.474c-0.428-0.786-0.771-1.616-1.025-2.474
	c-0.171-0.186-0.262-0.43-0.256-0.682c-0.265-0.612-0.494-1.238-0.682-1.877c-1.326-3.786-2.019-7.765-2.048-11.777
	c0-2.133,0.085-4.267,0.256-6.315c2.421-24.75,0.31-49.734-6.229-73.728c-1.675-6.234-2.534-12.659-2.56-19.115
	c-0.034-3.719,0.281-7.433,0.938-11.093c3.198-19.206,13.416-36.541,28.672-48.64h102.912
	C313.059,110.828,323.947,132.792,324.264,156.16z"/>
<path style="fill:#FEC108;" d="M341.33,393.387c0,12.203-10.667,23.211-27.733,30.72c-18.22,7.66-37.837,11.438-57.6,11.093
	c-47.104,0-85.333-18.773-85.333-41.813c0.024-3.256,0.782-6.464,2.219-9.387v-0.597h14.848l6.997-23.552
	c0.416-4.197,0.615-8.412,0.597-12.629c-0.071-7.817-0.583-15.623-1.536-23.381c-1.151-9.953-2.832-19.837-5.034-29.61
	c5.76,6.974,12.005,13.532,18.688,19.626c0.938,0.938,1.963,1.877,2.986,2.73l4.608,4.096c3.072,2.646,6.059,5.206,9.045,7.595
	c0.983,0.795,2.009,1.536,3.072,2.219c0.857,0.675,1.77,1.275,2.73,1.792c0.709,0.549,1.483,1.007,2.304,1.366
	c0.752,0.482,1.552,0.883,2.389,1.195c0.199,0.164,0.432,0.28,0.682,0.341c0.085,0,0.085,0,0.171,0.085
	c1.025,0.426,2.048,0.853,3.158,1.28h0.085c1.476,0.557,2.986,1.013,4.522,1.366c1.089,0.337,2.201,0.593,3.328,0.768
	c0.938,0.171,1.963,0.341,2.901,0.512c6.771,0.843,13.642,0.35,20.224-1.451c1.806-0.498,3.574-1.125,5.291-1.877
	c2.486-0.958,4.884-2.129,7.168-3.499c2.026-1.23,3.965-2.599,5.803-4.096c2.816-2.219,5.632-4.608,8.533-7.168
	c9.705-8.155,18.671-17.149,26.795-26.88c-2.202,9.774-3.883,19.658-5.034,29.61c-1.596,11.935-1.91,24.008-0.938,36.01
	l6.997,23.552h14.933v0.597C340.568,386.941,341.295,390.141,341.33,393.387z"/>
<path style="fill:#FFECB3;" d="M315.731,414.891c0.005,3.195-0.725,6.348-2.133,9.216c-18.22,7.66-37.837,11.438-57.6,11.093
	c-47.104,0-85.333-18.773-85.333-41.813c0.024-3.256,0.782-6.464,2.219-9.387v-0.597h14.848l6.997-23.552
	c0.416-4.197,0.615-8.412,0.597-12.629c1.11,0.853,2.133,1.707,3.158,2.56c0.983,0.795,2.009,1.536,3.072,2.219
	c0.857,0.675,1.77,1.274,2.73,1.792c0.709,0.549,1.483,1.007,2.304,1.366c0.752,0.482,1.552,0.882,2.389,1.195
	c0.199,0.164,0.432,0.28,0.682,0.341c0.085,0,0.085,0,0.171,0.085c1.025,0.426,2.048,0.853,3.158,1.28h0.085
	c1.476,0.556,2.986,1.012,4.522,1.366c1.089,0.337,2.201,0.593,3.328,0.768c0.938,0.171,1.963,0.341,2.901,0.512
	c6.771,0.843,13.642,0.351,20.224-1.451c1.806-0.498,3.574-1.125,5.291-1.877c4.69-1.846,9.066-4.408,12.97-7.595
	c6.485-5.206,13.312-11.093,19.798-17.408c5.506-5.229,10.693-10.786,15.53-16.64c-0.341,1.451-0.682,3.243-1.195,5.376
	c-1.195,6.144-2.73,14.677-3.84,24.235c-1.596,11.935-1.91,24.008-0.938,36.01l6.997,23.552h14.933v0.597
	C314.968,408.446,315.695,411.646,315.731,414.891z"/>
<path style="fill:#4E342E;" d="M255.997,42.666c-5.709,0.006-11.412,0.405-17.066,1.195c-48.469,6.485-85.333,40.362-85.333,81.152
	c0.011,6.266,0.902,12.499,2.646,18.517c1.451,5.041,3.453,9.906,5.973,14.507v0.085c0.129,5.797,0.96,11.556,2.474,17.152
	c0.341,1.366,0.768,2.645,1.022,4.011l0.512-0.085c5.291-16.469,16.64-39.509,38.571-39.509
	c12.453,0.037,24.527-4.278,34.133-12.203c7.455-6.601,12.648-15.377,14.848-25.088h4.437c5.462,22.445,25.893,37.999,48.982,37.291
	c5.062-0.019,10.039,1.307,14.421,3.84c12.8,7.168,20.14,23.296,24.15,35.669l0.512,0.085c0.255-1.366,0.681-2.645,1.022-4.011
	c1.515-5.596,2.346-11.356,2.474-17.152v-0.085c5.621-10.101,8.587-21.464,8.619-33.024
	C358.398,79.53,312.574,42.666,255.997,42.666z"/>
<path style="fill:#795548;" d="M324.264,125.013c-0.011,6.266-0.902,12.499-2.646,18.517c-4.382-2.533-9.358-3.858-14.421-3.84
	c-23.089,0.708-43.52-14.846-48.982-37.291h-4.437c-2.2,9.711-7.393,18.487-14.848,25.088c-9.606,7.923-21.681,12.24-34.133,12.203
	c-21.932,0-33.28,23.04-38.571,39.509l-0.512,0.085c-0.255-1.366-0.681-2.645-1.022-4.011c-1.515-5.596-2.346-11.356-2.474-17.152
	v-0.085c-2.52-4.601-4.523-9.465-5.973-14.507c-1.744-6.018-2.635-12.252-2.646-18.517c0-40.79,36.865-74.667,85.333-81.152
	C287.399,50.347,324.264,84.224,324.264,125.013z"/>
<path d="M346.289,187.817c-0.457,0.001-0.915-0.035-1.367-0.109c-3.309-0.521-6.088-2.771-7.284-5.9
	c-4.025-12.542-13.325-33.584-30.442-33.584c-20.927,0.377-40.457-10.467-51.2-28.429c-10.743,17.962-30.274,28.807-51.2,28.429
	c-17.117,0-26.416,21.042-30.442,33.584c-0.981,3.058-3.596,5.306-6.767,5.816c-4.662,0.796-9.145-2.154-10.259-6.75
	c-0.117-0.634-0.3-1.237-0.467-1.854l-0.45-1.675c-1.505-5.58-2.402-11.306-2.675-17.079c-5.681-10.884-8.656-22.977-8.675-35.254
	c0-50.113,49.767-90.88,110.933-90.88S366.93,74.9,366.93,125.013c-0.017,12.283-2.996,24.38-8.683,35.267
	c-0.275,5.798-1.175,11.55-2.683,17.154l-0.433,1.588c-0.167,0.617-0.349,1.22-0.467,1.854
	C353.9,184.899,350.385,187.812,346.289,187.817z M253.78,93.867h4.433c3.91-0.001,7.321,2.658,8.275,6.45
	c4.649,18.56,21.582,31.39,40.709,30.842c14.871,0.47,28.413,8.683,35.7,21.655c4.548-8.562,6.939-18.105,6.966-27.8
	c0-40.7-42.109-73.812-93.867-73.812s-93.867,33.112-93.867,73.812c0.028,9.696,2.419,19.238,6.966,27.8
	c7.288-12.97,20.829-21.184,35.7-21.654c19.127,0.549,36.06-12.281,40.709-30.842C246.459,96.524,249.87,93.866,253.78,93.867z"/>
<path d="M238.931,298.667h-87.858c-18.53-0.363-34.519-13.099-39.016-31.08l-9.367-34.98c-0.193-0.721-0.29-1.463-0.291-2.209
	c-0.272-13.835,10.699-25.283,24.533-25.6h8c4.713,0,8.533,3.82,8.533,8.533s-3.82,8.533-8.533,8.533h-8
	c-4.05,0.254-7.252,3.529-7.416,7.583l9.025,33.721c2.498,10.52,11.727,18.068,22.533,18.429h87.858c4.713,0,8.533,3.82,8.533,8.533
	C247.464,294.846,243.643,298.667,238.931,298.667z"/>
<path d="M256.006,348.121c-13.592,0.025-26.775-4.649-37.316-13.229c-37.525-30.392-56.559-57.171-56.559-79.575
	c0-2.379,0.091-4.759,0.291-7.042c2.155-22.417,0.473-45.037-4.975-66.888c-1.169-4.564,1.584-9.211,6.149-10.379
	c4.564-1.169,9.211,1.584,10.379,6.149c0.002,0.007,0.004,0.015,0.005,0.022c5.933,23.712,7.774,48.264,5.442,72.596
	c-0.15,1.766-0.225,3.654-0.225,5.541c0,16.525,17.85,40.083,50.258,66.333c15.46,12.551,37.598,12.557,53.067,0.017
	c32.425-26.267,50.275-49.826,50.275-66.35c0-1.887-0.075-3.775-0.225-5.583c-2.331-24.319-0.49-48.856,5.442-72.555
	c1.156-4.567,5.796-7.332,10.362-6.176c4.567,1.156,7.332,5.796,6.176,10.362c-0.002,0.007-0.004,0.015-0.005,0.022
	c-5.446,21.837-7.128,44.443-4.975,66.846c0.2,2.325,0.291,4.705,0.291,7.083c0,22.404-19.033,49.184-56.575,79.591
	C282.756,343.478,269.586,348.146,256.006,348.121z"/>
<path d="M195.247,359.425l-0.25-0.004c-4.711-0.133-8.423-4.06-8.291-8.771c0.17-8.622-0.296-17.246-1.392-25.8
	c-1.116-9.668-2.746-19.269-4.883-28.763c-1.039-4.595,1.843-9.163,6.437-10.202c4.595-1.039,9.163,1.843,10.202,6.437
	c0.003,0.016,0.007,0.031,0.01,0.047c2.273,10.073,4.006,20.259,5.192,30.516c1.184,9.367,1.685,18.806,1.5,28.246
	C203.641,355.748,199.864,359.422,195.247,359.425z"/>
<path d="M316.747,359.425c-4.617-0.003-8.393-3.677-8.525-8.292c-0.186-9.457,0.318-18.916,1.509-28.301
	c1.183-10.239,2.914-20.408,5.184-30.463c1.012-4.601,5.562-7.511,10.163-6.499c4.601,1.012,7.511,5.562,6.499,10.163
	c-0.004,0.018-0.007,0.035-0.011,0.052c-2.134,9.476-3.762,19.059-4.875,28.708c-1.101,8.571-1.569,17.213-1.4,25.854
	c0.132,4.711-3.581,8.638-8.291,8.771L316.747,359.425z"/>
<path style="fill:#00695C;" d="M437.417,503.467H74.578c-9.46-0.007-17.123-7.683-17.115-17.142c0.001-1.77,0.277-3.53,0.817-5.215
	l11.263-35.328c13.825-37.304,49.306-62.148,89.089-62.379l97.365,17.664l96.939-17.664c25.376,0.025,49.698,10.158,67.584,28.16
	c9.65,9.726,17.124,21.389,21.931,34.218l11.263,35.328c2.888,9.009-2.074,18.653-11.083,21.54
	C440.945,503.19,439.187,503.466,437.417,503.467z"/>
<path style="fill:#009688;" d="M400.979,503.467H74.578c-9.46-0.007-17.123-7.683-17.115-17.142c0.001-1.77,0.277-3.53,0.817-5.215
	l11.263-35.328c13.825-37.304,49.306-62.148,89.089-62.379l97.365,17.664l60.502-17.664c25.376,0.025,49.697,10.158,67.583,28.16
	c9.65,9.726,17.124,21.389,21.932,34.218l11.263,35.328c2.887,9.009-2.076,18.653-11.085,21.541
	C404.507,503.19,402.748,503.466,400.979,503.467z"/>
<path d="M437.414,512H74.58c-14.174-0.006-25.659-11.502-25.653-25.676c0.001-2.641,0.41-5.266,1.212-7.782l11.275-35.35
	c5.244-14.105,13.424-26.933,24-37.637c19.484-19.623,45.989-30.667,73.641-30.683h3.675c4.713,0,8.533,3.82,8.533,8.533
	c0,4.713-3.82,8.533-8.533,8.533h-3.675c-11.447,0.004-22.779,2.277-33.342,6.687c-22.301,9.334-39.741,27.486-48.175,50.142
	L66.413,483.7c-0.849,2.635-0.377,5.519,1.267,7.746c1.604,2.206,4.173,3.504,6.9,3.487h362.833c2.727,0.017,5.296-1.282,6.9-3.487
	c1.648-2.236,2.116-5.129,1.259-7.771l-11.258-35.3c-4.394-11.541-11.156-22.034-19.85-30.804
	c-16.32-16.332-38.437-25.546-61.526-25.634h-3.675c-4.713,0-8.533-3.82-8.533-8.533c0-4.713,3.82-8.533,8.533-8.533h3.675
	c27.631,0.103,54.1,11.128,73.633,30.671c10.491,10.6,18.624,23.296,23.867,37.259l11.409,35.717
	c4.318,13.5-3.125,27.945-16.625,32.263C442.698,511.587,440.064,511.999,437.414,512z"/>
<path d="M264.53,264.533h-17.066c-4.713,0-8.533-3.82-8.533-8.533c0-4.713,3.82-8.533,8.533-8.533h17.066
	c4.713,0,8.533,3.82,8.533,8.533C273.064,260.713,269.243,264.533,264.53,264.533z"/>
<path d="M230.397,204.8h-34.133c-4.713,0-8.533-3.82-8.533-8.533s3.82-8.533,8.533-8.533h34.133c4.713,0,8.533,3.82,8.533,8.533
	S235.11,204.8,230.397,204.8z"/>
<path d="M315.731,204.8h-34.133c-4.713,0-8.533-3.82-8.533-8.533s3.82-8.533,8.533-8.533h34.133c4.713,0,8.533,3.82,8.533,8.533
	S320.444,204.8,315.731,204.8z"/>
<path d="M213.331,221.867c-4.712,0.001-8.532-3.817-8.533-8.529c0-0.001,0-0.003,0-0.004v-17.066c0-4.713,3.82-8.533,8.533-8.533
	s8.533,3.82,8.533,8.533v17.066c0.001,4.712-3.817,8.532-8.529,8.533C213.334,221.867,213.332,221.867,213.331,221.867z"/>
<path d="M298.664,221.867c-4.712,0.001-8.532-3.817-8.533-8.529c0-0.001,0-0.003,0-0.004v-17.066c0-4.713,3.82-8.533,8.533-8.533
	c4.713,0,8.533,3.82,8.533,8.533v17.066c0.001,4.712-3.817,8.532-8.529,8.533C298.667,221.867,298.666,221.867,298.664,221.867z"/>
<path d="M271.439,425.559c-4.8-0.121-8.593-4.112-8.472-8.912s4.112-8.593,8.912-8.472c4.8,0.121,8.593,4.112,8.472,8.912
	c-0.08,3.156-1.864,6.022-4.662,7.485C274.357,425.193,272.909,425.529,271.439,425.559z"/>
<g>
	<path style="fill:#37474F;" d="M171.859,230.4h-18.262c-9.415-0.028-17.039-7.653-17.066-17.066v-42.667
		c0.028-9.414,7.653-17.039,17.066-17.066h6.4"/>
	<path style="fill:#37474F;" d="M351.998,153.6h6.4c9.414,0.028,17.039,7.653,17.066,17.066v42.666
		c-0.028,9.415-7.653,17.039-17.066,17.066h-18.262"/>
</g>
<path d="M171.856,238.934h-18.259c-14.132-0.016-25.585-11.468-25.6-25.6v-42.667c0.016-14.132,11.468-25.585,25.6-25.6h6.4
	c4.713,0,8.533,3.82,8.533,8.533s-3.82,8.533-8.533,8.533h-6.4c-4.711,0.005-8.529,3.822-8.533,8.533v42.666
	c0.005,4.711,3.822,8.529,8.533,8.533h18.259c4.713,0,8.533,3.82,8.533,8.533S176.569,238.934,171.856,238.934z"/>
<path d="M358.398,238.934h-18.259c-4.713,0-8.533-3.82-8.533-8.533s3.82-8.533,8.533-8.533h18.259
	c4.711-0.005,8.529-3.822,8.533-8.533v-42.666c-0.005-4.711-3.822-8.529-8.533-8.533h-6.4c-4.713,0-8.533-3.82-8.533-8.533
	s3.82-8.533,8.533-8.533h6.4c14.133,0.016,25.585,11.468,25.6,25.6v42.667C383.982,227.465,372.529,238.918,358.398,238.934z"/>
<path d="M379.731,187.733c-4.713,0-8.533-3.82-8.533-8.533s3.82-8.533,8.533-8.533c4.954-0.265,8.764-4.479,8.533-9.433v-26.946
	c0-64.637-49.767-117.221-110.933-117.221h-42.666c-61.167,0-110.933,52.583-110.933,117.221v26.946
	c-0.23,4.955,3.581,9.168,8.533,9.433c4.713,0,8.533,3.82,8.533,8.533s-3.82,8.533-8.533,8.533
	c-14.378-0.269-25.828-12.121-25.6-26.5v-26.946C106.664,60.242,164.081,0,234.664,0h42.666
	c70.583,0,128.001,60.242,128.001,134.288v26.946C405.559,175.612,394.109,187.465,379.731,187.733z"/>
<g>
	<polygon style="fill:#CFD8DC;" points="162.13,384.001 196.264,349.867 255.997,401.067 221.864,435.2 	"/>
	<polygon style="fill:#CFD8DC;" points="349.865,384.001 315.731,349.867 255.997,401.067 290.131,435.2 	"/>
</g>
<path d="M221.864,443.733c-2.037,0.003-4.007-0.726-5.55-2.054l-59.734-51.2c-3.579-3.066-3.994-8.453-0.928-12.032
	c0.142-0.166,0.29-0.327,0.445-0.481l34.133-34.133c3.148-3.159,8.201-3.354,11.584-0.446l59.734,51.2
	c3.579,3.066,3.994,8.453,0.928,12.032c-0.142,0.166-0.29,0.326-0.445,0.48l-34.133,34.133
	C226.298,442.836,224.128,443.735,221.864,443.733z M174.681,383.517l46.733,40.063l22.033-22.029l-46.733-40.063L174.681,383.517z"
	/>
<path d="M290.131,443.733c-2.264,0.002-4.434-0.898-6.033-2.5L249.964,407.1c-3.332-3.333-3.331-8.735,0.002-12.067
	c0.155-0.155,0.315-0.303,0.481-0.445l59.734-51.2c3.383-2.907,8.435-2.712,11.583,0.446l34.133,34.133
	c3.332,3.333,3.331,8.735-0.002,12.067c-0.155,0.155-0.315,0.303-0.481,0.445l-59.734,51.2
	C294.137,443.008,292.167,443.737,290.131,443.733z M268.548,401.55l22.033,22.029l46.733-40.063l-22.033-22.029L268.548,401.55z"/>
<path style="fill:#F44335;" d="M221.864,435.2l33.919-33.919l0,0l34.133,34.133l0,0l-27.885,27.885
	c-3.333,3.333-8.735,3.333-12.068,0L221.864,435.2L221.864,435.2z"/>
<path d="M255.997,474.325c-4.526,0.008-8.869-1.789-12.067-4.992l-28.1-28.1c-3.332-3.331-3.334-8.731-0.003-12.064
	c0.001-0.001,0.002-0.002,0.003-0.003l33.917-33.921c3.386-3.2,8.681-3.2,12.067,0l34.133,34.133
	c3.332,3.331,3.334,8.731,0.003,12.064c-0.001,0.001-0.002,0.002-0.003,0.003l-27.883,27.888
	C264.866,472.537,260.524,474.334,255.997,474.325z M233.931,435.2l22.066,22.066l21.85-21.854l-22.066-22.066L233.931,435.2z"/>
<polyline style="fill:#C52828;" points="247.464,460.8 221.864,503.467 290.131,503.467 264.53,460.8 "/>
<path d="M290.131,512h-68.267c-4.713-0.001-8.533-3.822-8.533-8.535c0-1.546,0.421-3.063,1.216-4.389l25.6-42.666
	c2.426-4.041,7.668-5.351,11.709-2.924c2.526,1.516,4.091,4.229,4.141,7.174c0.079-4.713,3.963-8.469,8.676-8.39
	c2.946,0.05,5.658,1.615,7.174,4.141l25.6,42.666c2.424,4.042,1.114,9.284-2.927,11.708C293.194,511.58,291.677,512,290.131,512z
	 M236.939,494.934h38.116l-17.842-29.742c-0.773-1.281-1.193-2.743-1.216-4.237c-0.024,1.495-0.444,2.957-1.216,4.237
	L236.939,494.934z"/>
<g>
</g>
<g>
</g>
<g>
</g>
<g>
</g>
<g>
</g>
<g>
</g>
<g>
</g>
<g>
</g>
<g>
</g>
<g>
</g>
<g>
</g>
<g>
</g>
<g>
</g>
<g>
</g>
<g>
</g>
</svg>
